<?xml version="1.0" encoding="UTF-8" standalone="no"?>
<svg
   xmlns:dc="http://purl.org/dc/elements/1.1/"
   xmlns:cc="http://creativecommons.org/ns#"
   xmlns:rdf="http://www.w3.org/1999/02/22-rdf-syntax-ns#"
   xmlns:svg="http://www.w3.org/2000/svg"
   xmlns="http://www.w3.org/2000/svg"
   xmlns:sodipodi="http://sodipodi.sourceforge.net/DTD/sodipodi-0.dtd"
   xmlns:inkscape="http://www.inkscape.org/namespaces/inkscape"
   width="200"
   height="200"
   id="svg4204"
   version="1.1"
   inkscape:version="0.91 r13725"
   sodipodi:docname="player0-1.svg">
  <defs
     id="defs4232" />
  <sodipodi:namedview
     pagecolor="#ffffff"
     bordercolor="#666666"
     borderopacity="1"
     objecttolerance="10"
     gridtolerance="10"
     guidetolerance="10"
     inkscape:pageopacity="0"
     inkscape:pageshadow="2"
     inkscape:window-width="1366"
     inkscape:window-height="705"
     id="namedview4230"
     showgrid="false"
     inkscape:current-layer="g4145"
     inkscape:zoom="2.6534653"
     inkscape:cx="100"
     inkscape:cy="100"
     inkscape:window-x="-8"
     inkscape:window-y="-8"
     inkscape:window-maximized="1" />
  <metadata
     id="metadata4138">image/svg+xmlimage/svg+xml<rdf:RDF>
  <cc:Work
     rdf:about="">
    <dc:format>image/svg+xml</dc:format>
    <dc:type
       rdf:resource="http://purl.org/dc/dcmitype/StillImage" />
    <dc:title></dc:title>
  </cc:Work>
</rdf:RDF>
</metadata>
  <g
     id="g4140">
    <title
       id="title4208">background</title>
    <rect
       x="-1"
       y="-1"
       width="202"
       height="202"
       id="canvas_background"
       fill="none" />
  </g>
  <g
     id="g4145">
    <title
       id="title4212">Layer 1</title>
    <path
       d="m 35,100.35056 c 12.36483,9.38319 49.406917,27.87682 47.771737,31.88471 -5.369292,26.53794 -21.725057,60.42414 -13.999997,60.35143"
       id="svg_2"
       inkscape:connector-curvature="0"
       style="fill:none;stroke:#181820;stroke-width:6;stroke-linecap:round"
       sodipodi:nodetypes="ccc" />
    <path
       d="m 44.901873,45.108298 c 3.72133,-8.79645 1.77736,18.06658 3.78631,21.90273 1.89,3.609 6.89748,-0.75012 12.07391,-4.59652"
       id="svg_3"
       inkscape:connector-curvature="0"
       style="fill:none;stroke:#181820;stroke-width:6;stroke-linecap:round" />
    <path
       d="m 40.639123,44.715278 c -9.26999,3.63501 -1.71852,20.5305 -5.76797,44.0193"
       id="svg_4"
       inkscape:connector-curvature="0"
       style="fill:none;stroke:#181820;stroke-width:6;stroke-linecap:round" />
    <path
       d="m 71.939783,49.873708 c -3.41061,-4.37456 -12.20901,-5.00486 -11.59465,3.52504 -1.35777,1.57879 -1.71404,0.0012 -2.09496,4.7949 l 5.26826,8.94516 c 8.80699,-2.7616 12.14832,-7.90911 8.42135,-17.2651 z"
       id="svg_9"
       inkscape:connector-curvature="0"
       style="fill:#ff1919;fill-rule:evenodd" />
    <path
       d="m 60.377203,53.429948 c -1.76455,1.64004 -1.82942,1.27386 -2.1413,4.70346 l 5.30338,9.11919 c 0,0 5.86658,-1.65258 7.65743,-4.36986 -1.19914,0.77855 -1.10715,-3.80843 -5.26282,-2.62626 -6.17529,1.29108 -5.53116,0.02448 -5.55669,-6.82653 z"
       id="svg_16"
       inkscape:connector-curvature="0"
       style="fill:#000000;fill-opacity:0.4;fill-rule:evenodd" />
    <ellipse
       ry="11.355175"
       rx="10.355176"
       cx="52.927544"
       cy="38.464577"
       id="svg_5"
       style="fill:#ffffff;stroke:#181820;stroke-width:3" />
    <path
       d="m 35,104.99984 c -0.28518,3.76152 -7.40906,39.21453 -8.5782,42.40705 -2.8358,12.35903 -27.47187,49.30532 -19.23926,49.22728"
       id="svg_6"
       inkscape:connector-curvature="0"
       style="fill:none;stroke:#181820;stroke-width:6;stroke-linecap:round" />
    <path
       d="m 46.221489,127.30835 -3.187968,9.00065 -28.655797,-1.03678 c 2.04466,-12.91408 3.762985,-28.67456 5.807645,-41.588637 l 30.28897,0.05832 19.135059,18.205977 -5.883307,19.19704"
       id="svg_7"
       inkscape:connector-curvature="0"
       style="fill:#03253d;fill-rule:evenodd"
       sodipodi:nodetypes="ccccccc" />
    <path
       d="m 45.808722,127.00986 1.984887,-7.17438 17.932275,4.67728 -2.131243,6.27647 z"
       id="svg_8"
       inkscape:connector-curvature="0"
       style="fill:#000000;fill-opacity:0.4;fill-rule:evenodd"
       sodipodi:nodetypes="ccccc" />
    <path
       d="m 34.949433,41.760128 c -12.04627,-13.00356 -16.7752,27.51782 -12.11577,27.88077 4.57058,0.35602 18.49983,-13.7044 32.57688,-21.55556"
       id="svg_10"
       inkscape:connector-curvature="0"
       style="fill:none;stroke:#181820;stroke-width:6;stroke-linecap:round" />
    <path
       d="m 61.888323,36.980168 c 1.68618,0.12749 11.93509,6.19265 9.62116,13.25783 -1.06367,2.04424 -4.91102,4.89117 -7.31391,2.66487 -6.18083,3.9223 -6.86009,3.31294 -9.37112,1.73224 l -5.78704,3.93511 c -1.84567,-2.87579 -4.06635,-6.00159 -5.91203,-8.87738 l 5.88923,-3.97346 c 0.25464,-2.47031 10.89239,-8.74543 12.87371,-8.73921 z"
       id="svg_11"
       stroke="null"
       inkscape:connector-curvature="0"
       style="fill:#ff1919;fill-rule:evenodd" />
    <path
       d="m 48.562073,46.130928 6.10625,8.61979 c -1.4631,0.93023 -2.2387,1.54796 -3.8268,2.60319 -0.96864,-1.51227 -4.99977,-7.39953 -5.96841,-8.9118 1.25049,-0.87456 2.31347,-1.62412 3.56396,-2.49868 l 0.125,0.1875 z"
       id="svg_12"
       stroke="null"
       inkscape:connector-curvature="0"
       style="fill:#f5faff;fill-rule:evenodd" />
    <path
       stroke="null"
       d="m 47.835503,56.720708 c 6.61011,-4.51673 6.90758,-5.09584 8.70506,-3.73741 1.29748,0.73341 1.89707,0.52912 6.45488,-2.04993 4.55781,-2.57905 9.84488,-6.18574 8.6033,-0.78695 -0.99158,2.2112 -5.18906,4.87549 -7.34593,2.8059 -5.28191,3.30534 -6.61686,3.7205 -9.35196,1.71449 l -5.83456,3.88703 -1.23079,-1.83313 z"
       id="svg_13"
       inkscape:connector-curvature="0"
       style="fill:#000000;fill-opacity:0.4;fill-rule:evenodd" />
    <path
       fill="#000000"
       fill-opacity="0.4"
       fill-rule="evenodd"
       id="svg_14"
       stroke="null" />
    <path
       d="m 20.239119,93.918392 c 0.79559,0.129956 21.46619,-0.108426 30.13678,-0.150734 l 0.03707,-13.363104 c -9.55555,-0.152089 -20.17361,0.212615 -29.72916,0.06053 z"
       id="svg_15"
       stroke="null"
       inkscape:connector-curvature="0"
       style="fill:#10140c;fill-opacity:1;fill-rule:evenodd"
       sodipodi:nodetypes="ccccc" />
    <path
       id="svg_1"
       d="M 49.50134,63.4388"
       fill-opacity="null"
       stroke-width="null"
       inkscape:connector-curvature="0"
       style="opacity:0.5;fill:#ff1919;stroke:#000000" />
  </g>
</svg>
