<?xml version="1.0" encoding="UTF-8" standalone="no"?>
<!-- Generator: Adobe Illustrator 16.0.0, SVG Export Plug-In . SVG Version: 6.00 Build 0)  -->

<svg
   xmlns:dc="http://purl.org/dc/elements/1.1/"
   xmlns:cc="http://creativecommons.org/ns#"
   xmlns:rdf="http://www.w3.org/1999/02/22-rdf-syntax-ns#"
   xmlns:svg="http://www.w3.org/2000/svg"
   xmlns="http://www.w3.org/2000/svg"
   xmlns:sodipodi="http://sodipodi.sourceforge.net/DTD/sodipodi-0.dtd"
   xmlns:inkscape="http://www.inkscape.org/namespaces/inkscape"
   version="1.1"
   id="Capa_1"
   x="0px"
   y="0px"
   width="96"
   height="96"
   viewBox="0 0 96 96"
   xml:space="preserve"
   inkscape:version="0.91 r13725"
   sodipodi:docname="facebook_logo.svg"><metadata
     id="metadata5350"><rdf:RDF><cc:Work
         rdf:about=""><dc:format>image/svg+xml</dc:format><dc:type
           rdf:resource="http://purl.org/dc/dcmitype/StillImage" /><dc:title></dc:title></cc:Work></rdf:RDF></metadata><defs
     id="defs5348" /><sodipodi:namedview
     pagecolor="#ffffff"
     bordercolor="#666666"
     borderopacity="1"
     objecttolerance="10"
     gridtolerance="10"
     guidetolerance="10"
     inkscape:pageopacity="0"
     inkscape:pageshadow="2"
     inkscape:window-width="640"
     inkscape:window-height="480"
     id="namedview5346"
     showgrid="false"
     inkscape:current-layer="g5313" /><g
     id="g5313"
     transform="translate(0,6)"><path
       id="Facebook__x28_alt_x29_"
       d="m 50,90 0,-38 -12,0 0,-12 12,0 C 49.811122,11.633098 47.621436,6 78,6 l 0,12 C 60.055049,17.98826 61.618644,18.721676 62,40 l 16,0 -4,12 -12,0 0,38 z"
       inkscape:connector-curvature="0"
       sodipodi:nodetypes="ccccccccccccc"
       style="fill:#ffffff;fill-opacity:1;stroke:none" /></g><g
     id="g5316"
     transform="translate(0,6)" /><g
     id="g5318"
     transform="translate(0,6)" /><g
     id="g5320"
     transform="translate(0,6)" /><g
     id="g5322"
     transform="translate(0,6)" /><g
     id="g5324"
     transform="translate(0,6)" /><g
     id="g5326"
     transform="translate(0,6)" /><g
     id="g5328"
     transform="translate(0,6)" /><g
     id="g5330"
     transform="translate(0,6)" /><g
     id="g5332"
     transform="translate(0,6)" /><g
     id="g5334"
     transform="translate(0,6)" /><g
     id="g5336"
     transform="translate(0,6)" /><g
     id="g5338"
     transform="translate(0,6)" /><g
     id="g5340"
     transform="translate(0,6)" /><g
     id="g5342"
     transform="translate(0,6)" /><g
     id="g5344"
     transform="translate(0,6)" /></svg>