<?xml version="1.0" encoding="UTF-8" standalone="no"?>
<!-- Generator: Adobe Illustrator 16.0.0, SVG Export Plug-In . SVG Version: 6.00 Build 0)  -->

<svg
   xmlns:dc="http://purl.org/dc/elements/1.1/"
   xmlns:cc="http://creativecommons.org/ns#"
   xmlns:rdf="http://www.w3.org/1999/02/22-rdf-syntax-ns#"
   xmlns:svg="http://www.w3.org/2000/svg"
   xmlns="http://www.w3.org/2000/svg"
   xmlns:sodipodi="http://sodipodi.sourceforge.net/DTD/sodipodi-0.dtd"
   xmlns:inkscape="http://www.inkscape.org/namespaces/inkscape"
   version="1.1"
   id="Capa_1"
   x="0px"
   y="0px"
   width="96"
   height="96"
   viewBox="0 0 96 96"
   xml:space="preserve"
   inkscape:version="0.91 r13725"
   sodipodi:docname="google_logo.svg"><metadata
     id="metadata5350"><rdf:RDF><cc:Work
         rdf:about=""><dc:format>image/svg+xml</dc:format><dc:type
           rdf:resource="http://purl.org/dc/dcmitype/StillImage" /><dc:title /></cc:Work></rdf:RDF></metadata><defs
     id="defs5348" /><sodipodi:namedview
     pagecolor="#ffffff"
     bordercolor="#666666"
     borderopacity="1"
     objecttolerance="10"
     gridtolerance="10"
     guidetolerance="10"
     inkscape:pageopacity="0"
     inkscape:pageshadow="2"
     inkscape:window-width="1920"
     inkscape:window-height="1027"
     id="namedview5346"
     showgrid="false"
     inkscape:current-layer="Capa_1"
     inkscape:zoom="5.2544194"
     inkscape:cx="28.613728"
     inkscape:cy="42.83029"
     inkscape:window-x="-8"
     inkscape:window-y="-8"
     inkscape:window-maximized="1" /><g
     id="g5316"
     transform="translate(0,6)" /><g
     id="g5318"
     transform="translate(0,6)" /><g
     id="g5320"
     transform="translate(0,6)" /><g
     id="g5322"
     transform="translate(0,6)" /><g
     id="g5324"
     transform="translate(0,6)" /><g
     id="g5326"
     transform="translate(0,6)" /><g
     id="g5328"
     transform="translate(0,6)" /><g
     id="g5330"
     transform="translate(0,6)" /><g
     id="g5332"
     transform="translate(0,6)" /><g
     id="g5334"
     transform="translate(0,6)" /><g
     id="g5336"
     transform="translate(0,6)" /><g
     id="g5338"
     transform="translate(0,6)" /><g
     id="g5340"
     transform="translate(0,6)" /><g
     id="g5342"
     transform="translate(0,6)" /><g
     id="g5344"
     transform="translate(0,6)" /><path
     style="fill:#ffffff"
     id="path3427"
     d="m 66.182845,32.698061 c -0.337416,-1.103816 -0.968615,-2.143746 -1.610519,-3.098134 -0.951004,-1.23901 -2.257942,-2.157067 -3.565032,-2.987516 -1.373451,-0.830397 -2.744066,-1.668494 -4.143926,-2.455342 -1.392109,-0.801105 -2.868253,-1.434863 -4.326626,-2.101588 -1.20951,-0.442977 -2.384937,-0.964336 -3.636356,-1.279313 -0.92454,-0.200986 -1.875977,-0.186672 -2.816951,-0.195427 -1.447809,0.09907 -2.819905,0.659506 -4.191119,1.097113 -1.797806,0.538488 -3.567415,1.160349 -5.330039,1.80327 -0.210807,0.08856 -0.423002,0.173883 -0.632422,0.265673 -0.589242,0.258266 -0.560642,0.249361 -1.117821,0.571504 -0.197362,0.114108 -0.786925,0.460749 -0.589242,0.347197 11.426885,-6.56377 14.969775,-8.878395 10.630671,-6.06466 -1.142416,0.783021 -2.219816,1.65694 -3.311323,2.508677 -1.219607,0.942091 -2.309256,2.032545 -3.347234,3.167548 -1.323067,1.463496 -2.438887,3.089997 -3.489452,4.754686 -1.190952,1.921208 -2.234292,3.926444 -3.229401,5.954259 -1.123716,2.328776 -2.210044,4.675099 -3.302126,7.018798 -0.967242,2.084775 -1.782796,4.235878 -2.480084,6.424747 -0.295326,1.04724 -0.705658,2.058608 -0.993715,3.107953 -0.194835,0.709749 -0.24039,1.006673 -0.388591,1.743724 -0.345171,1.885657 -0.356164,3.808415 -0.430477,5.71794 -0.125554,1.844674 0.0817,3.680783 0.370779,5.499273 0.269068,1.585614 0.884408,2.945451 1.754241,4.283082 0.600687,0.937776 1.43798,1.656614 2.250336,2.398864 1.344435,1.228413 -0.106257,-0.05085 1.258582,1.139693 1.038651,0.999121 2.239943,1.799543 3.36424,2.694004 0.810878,0.607248 1.652296,1.174013 2.443668,1.807369 0.354496,0.263323 0.71551,0.52919 1.093192,0.759169 0.104088,0.06338 0.219656,0.106509 0.323651,0.170044 0.424049,0.294434 0.216057,0.161909 0.62131,0.401728 0.529056,0.370412 1.082837,0.702605 1.65391,1.004539 0.107457,0.03964 0.217917,0.07194 0.322372,0.118928 0.127295,0.05726 0.24456,0.135179 0.37151,0.193204 0.423638,0.193632 0.868398,0.301705 1.328305,0.35674 0.465902,0.182822 0.953252,0.201245 1.44602,0.194186 0.505473,-0.0068 1.010833,-0.01563 1.516355,-0.01208 0.586344,0.0037 1.172672,-0.0033 1.759002,-0.0023 0.566422,0.0019 1.132919,1.4e-4 1.699329,-0.0059 0.539937,-1.34e-4 1.079868,0.005 1.619803,0.0031 0.577676,7.97e-4 1.155283,0.0075 1.732949,0.0014 0.52719,-9.47e-4 1.05432,-0.0048 1.581503,-0.0062 0.08119,-5.74e-4 0.163816,0.0135 0.243566,-0.0017 0.06813,-0.01301 0.127678,-0.05422 0.191516,-0.08133 0.07564,-0.01533 0.150479,-0.03533 0.226914,-0.046 0.265509,-0.03707 0.539839,-0.04266 0.807243,-0.05811 0.377255,0.03377 0.72964,-0.127905 1.082565,-0.211601 0.849913,-0.201555 -0.18301,0.123916 0.64477,-0.15353 0.106723,-0.02887 0.212053,-0.0635 0.32017,-0.08662 0.338079,-0.07229 0.332879,-0.02639 0.668188,-0.129648 0.109961,-0.03386 0.211873,-0.09067 0.321463,-0.125723 0.180017,-0.05757 0.50788,-0.122556 0.693432,-0.16201 0.368974,-0.187472 0.799634,-0.219698 1.166004,-0.41286 0.102625,-0.05411 0.193272,-0.128389 0.289908,-0.192583 0.107745,-0.05396 0.21549,-0.107916 0.323235,-0.161874 4.256174,-2.423205 9.379534,-5.439082 -10.797537,6.219516 -0.122751,0.07093 0.25121,-0.131616 0.374319,-0.20192 0.129253,-0.07381 0.255036,-0.153541 0.382554,-0.230311 0.743836,-0.488365 1.420092,-1.066181 2.137882,-1.587971 0.544184,-0.503701 1.120921,-0.971429 1.637021,-1.504541 0.276353,-0.182425 0.478772,-0.445084 0.713724,-0.670702 0.209486,-0.201164 0.435186,-0.382362 0.641323,-0.589083 0.405916,-0.422157 0.797554,-0.857169 1.230304,-1.252265 0.562136,-0.584978 1.093972,-1.200286 1.559275,-1.865289 0.459323,-0.606035 0.869313,-1.249216 1.185774,-1.941214 0.256748,-0.478886 0.468625,-0.977198 0.714647,-1.461742 0.200113,-0.524389 0.4155,-1.040267 0.620891,-1.563272 0.189063,-0.558382 0.474579,-1.079332 0.639895,-1.645513 0.174436,-0.547306 0.351527,-1.092183 0.492899,-1.649069 0.258711,-0.57432 0.404557,-1.181093 0.553265,-1.789091 0,0 12.867296,-6.131191 12.867296,-6.131191 l 0,0 c -0.06243,0.20849 -0.15133,0.4095 -0.19889,0.621875 -0.02803,0.125172 -0.02661,0.255393 -0.04925,0.381652 -0.05365,0.299286 -0.150397,0.592672 -0.228025,0.886006 -0.26343,0.502482 -0.32717,1.081474 -0.535878,1.608021 -0.223906,0.623827 0.01202,-0.07553 -0.173703,0.62938 -0.07629,0.289562 -0.210703,0.539865 -0.321382,0.813419 -0.03667,0.09063 -0.05996,0.186118 -0.08994,0.279177 -0.207665,0.5156 -0.4022,1.030225 -0.610579,1.542536 -0.169146,0.571447 -0.464287,1.085478 -0.699323,1.630849 -0.317496,0.533871 -0.02923,0.01932 -0.316076,0.634742 -0.240841,0.516713 -0.545168,1.007978 -0.834855,1.497014 -0.474719,0.671106 -0.905789,1.373891 -1.445231,1.997829 -0.346867,0.472622 -0.792525,0.855007 -1.186896,1.287615 -0.203953,0.220463 -0.394635,0.48026 -0.61418,0.68377 -0.07565,0.07013 -0.171546,0.115769 -0.248383,0.184595 -0.0213,0.01908 -0.473417,0.501563 -0.487238,0.516283 -0.608085,0.456663 -1.089127,1.061939 -1.694685,1.525579 -0.627534,0.664872 -0.0019,0.04706 -0.68041,0.594341 -0.411865,0.332212 -0.236291,0.268251 -0.664187,0.600379 -0.119169,0.0925 -0.252592,0.165133 -0.37566,0.252377 -0.123353,0.08745 -0.242247,0.181018 -0.363371,0.271527 -4.183044,3.578832 -9.292927,5.954947 -14.273452,8.27386 -0.62433,0.261763 -1.297045,0.413537 -1.955329,0.565908 -0.663664,0.189949 -1.336961,0.327067 -2.007172,0.492 -0.119023,0.01834 -0.238047,0.03668 -0.357071,0.05503 -0.112629,0.02639 -0.223692,0.0607 -0.337888,0.07917 -0.397803,0.06433 -0.803673,0.03771 -1.201132,0.09852 -0.339126,0.04188 -0.699642,0.138452 -1.041973,0.126197 -0.09067,-0.0032 -0.17933,-0.02913 -0.269809,-0.0358 -0.07939,-0.0059 -0.159217,-0.0011 -0.238825,-0.0017 -0.521509,-0.0014 -1.042961,-0.0052 -1.564478,-0.0062 -0.578928,-0.0063 -1.157805,7.7e-4 -1.736745,0.0014 -0.542674,-0.0019 -1.085346,0.0032 -1.628021,0.0031 -0.56079,-0.006 -1.121683,-0.0075 -1.682482,-0.0045 -0.587922,0.0023 -1.175852,-0.0021 -1.763776,0.0031 -0.537209,0.0032 -1.076822,-0.002 -1.609949,-0.07535 -0.522927,-0.09101 -1.020089,-0.261143 -1.528118,-0.410294 -0.754695,-0.273613 -1.480048,-0.62536 -2.197166,-0.983766 -0.598715,-0.332686 -1.188711,-0.679209 -1.737773,-1.090559 -0.679869,-0.490394 -1.385054,-0.947802 -2.032696,-1.482169 -0.80081,-0.622699 -1.622975,-1.21721 -2.404409,-1.864761 -1.092311,-0.928057 -2.146277,-1.897955 -3.228338,-2.837799 -1.334562,-1.193737 -2.677301,-2.402904 -3.735497,-3.858434 -0.456991,-0.734161 -0.936698,-1.468246 -1.270426,-2.270108 -0.334683,-0.804158 -0.508315,-1.666725 -0.69094,-2.513727 -0.06177,-0.306716 -0.133336,-0.611621 -0.185301,-0.920149 -0.269121,-1.597814 -0.273786,-3.223474 -0.284913,-4.838447 0.004,-1.96869 0.147889,-3.929636 0.339543,-5.888516 0.07019,-0.571134 0.145246,-1.270133 0.256548,-1.838095 0.219069,-1.117881 0.641523,-2.177486 1.034633,-3.241888 0.845703,-2.217684 1.640675,-4.455935 2.599489,-6.628554 1.088031,-2.338243 2.230789,-4.650104 3.25822,-7.016579 0.956076,-2.035921 1.926407,-4.071919 3.058614,-6.016437 0.430357,-0.75663 0.561544,-1.016949 1.041705,-1.74284 0.188348,-0.284737 0.394001,-0.5577 0.585159,-0.840558 0.540532,-0.799828 1.058463,-1.615703 1.690289,-2.349841 0.955582,-1.196867 1.97286,-2.349907 3.135739,-3.35157 1.08362,-0.920576 2.233369,-1.755693 3.338628,-2.649628 4.582874,-3.263217 0.839894,-0.627659 13.24372,-7.80015 0.763992,-0.441777 1.618641,-0.70721 2.450901,-0.98349 1.755373,-0.569003 3.508114,-1.145821 5.265848,-1.707573 1.524306,-0.477548 3.061799,-0.997514 4.684262,-0.884138 1.0313,0.04514 2.061082,0.130202 3.026943,0.528538 1.221749,0.465629 2.443227,0.939334 3.623339,1.503758 1.478048,0.69228 2.939485,1.422057 4.355782,2.234517 1.403921,0.836647 2.876414,1.56488 4.197669,2.53373 1.407414,1.001709 2.836004,2.010497 3.92416,3.371905 0.143047,0.199264 0.297312,0.390935 0.429141,0.597791 0.114464,0.179607 0.204197,0.373836 0.30844,0.559561 0.390196,0.695194 0.7831,1.38909 1.264238,2.026936 0,0 -12.472969,7.027081 -12.472969,7.027081 z"
     inkscape:connector-curvature="0" /><path
     style="fill:#ffffff"
     id="path3429"
     d="m 55.220212,53.690769 c 0.144748,0.04395 0.286755,0.09823 0.434246,0.131861 0.432639,0.09864 1.139468,0.186059 1.552609,0.227896 1.145054,0.115955 2.295317,0.156402 3.444665,0.201341 2.396928,0.07543 4.794133,0.04976 7.191385,0.02062 1.959379,0.02107 3.918261,-0.02612 5.877534,-0.03573 1.842353,0.02967 3.684871,0.02515 5.526994,-0.016 1.12234,-0.03084 2.244889,-0.05322 3.367454,-0.07367 0.672267,-0.0031 1.344334,-0.01749 2.01645,-0.03083 0.421709,-0.0086 0.843497,-0.01128 1.26528,-0.01257 0.49068,0.0081 0.981216,0.01758 1.471983,0.01473 0.08599,-8.6e-4 0.175066,-0.02546 0.257958,-0.0026 0.622926,0.171904 0.96658,0.825055 1.140147,1.383205 0.128003,0.73934 -0.136943,1.464924 -0.30339,2.179277 -0.141032,0.816336 -0.292057,1.632483 -0.410944,2.452747 -0.147007,0.918586 -0.209733,1.847831 -0.249497,2.776427 -0.03071,0.853646 -0.02077,1.707999 -0.04209,2.561738 -0.0042,0.795418 0.02921,1.590029 0.03207,2.385506 -0.01552,0.683255 0.0012,1.366694 0.02262,2.04964 0.0216,0.503469 0.01352,1.007419 0.0016,1.511016 -0.0059,0.633369 -0.01983,1.267024 -0.01372,1.900461 -0.001,0.591659 0.005,1.182996 0.01991,1.774625 0.02736,0.446433 -0.0313,0.896214 0.01784,1.340794 0.0733,0.404933 0.131522,0.811372 0.16444,1.221569 0.0013,0.594768 -0.01412,1.189553 -0.0075,1.784623 0.01841,0.517634 0.01489,1.035372 0.02077,1.55317 0.0064,0.417311 0.0106,0.834645 0.01279,1.251998 0,0 -12.77272,6.507944 -12.77272,6.507944 l 0,0 c 0.0023,-0.422073 0.0066,-0.844127 0.01336,-1.266153 0.0065,-0.524771 0.0042,-1.049484 0.02291,-1.574082 0.006,-0.56242 -0.0011,-1.124449 -0.03477,-1.685944 -0.0043,-0.371481 -0.01534,-0.743772 -0.08319,-1.110198 -0.08642,-0.509869 -0.12301,-1.016086 -0.09054,-1.534121 0.01469,-0.598394 0.02093,-1.196503 0.01991,-1.79492 0.006,-0.628785 -0.0077,-1.257786 -0.01371,-1.886498 -0.01217,-0.504124 -0.01954,-1.008571 0.0016,-1.512582 0.02088,-0.690114 0.03796,-1.380735 0.0216,-2.071129 0.0018,-0.806009 0.03282,-1.61128 0.02773,-2.417224 -0.02197,-0.867146 -0.01481,-1.735325 0.0052,-2.60246 0.0316,-0.973727 0.104726,-1.943604 0.220058,-2.911206 0.159901,-1.335814 -0.03534,0.380826 0.08156,-0.931406 0.04725,-0.530358 0.20339,-1.045533 0.237573,-1.578536 0.226187,-1.355498 -0.08386,0.472111 0.140683,-0.761564 0.05541,-0.304425 0.05887,-0.641115 0.271086,-0.887978 0.204928,-0.05981 0.238743,0.3817 -0.290375,0.29186 -0.504272,-0.003 -1.008329,0.0071 -1.512521,0.01473 -0.410254,-0.0013 -0.820516,-0.0038 -1.23069,-0.01257 -0.643815,-0.01352 -1.287577,-0.02799 -1.931557,-0.03086 -1.054955,-0.02026 -2.109897,-0.04241 -3.164601,-0.07355 -1.828251,-0.04319 -3.656956,-0.04308 -5.485446,-0.01324 -1.930293,-0.0071 -3.860219,-0.05027 -5.79059,-0.03193 -2.367754,-0.03942 -4.735737,-0.07785 -7.102945,-0.140644 -2.023341,-0.06327 -4.046035,-0.149911 -6.062383,-0.335109 0,0 11.691015,-8.202497 11.691015,-8.202497 z"
     inkscape:connector-curvature="0" /></svg>