<?xml version="1.0" encoding="UTF-8" standalone="no"?>
<svg
   xmlns:dc="http://purl.org/dc/elements/1.1/"
   xmlns:cc="http://creativecommons.org/ns#"
   xmlns:rdf="http://www.w3.org/1999/02/22-rdf-syntax-ns#"
   xmlns:svg="http://www.w3.org/2000/svg"
   xmlns="http://www.w3.org/2000/svg"
   xmlns:sodipodi="http://sodipodi.sourceforge.net/DTD/sodipodi-0.dtd"
   xmlns:inkscape="http://www.inkscape.org/namespaces/inkscape"
   width="200"
   height="200"
   id="svg4204"
   version="1.1"
   inkscape:version="0.91 r13725"
   sodipodi:docname="player0-n2.svg">
  <defs
     id="defs4232" />
  <sodipodi:namedview
     pagecolor="#ffffff"
     bordercolor="#666666"
     borderopacity="1"
     objecttolerance="10"
     gridtolerance="10"
     guidetolerance="10"
     inkscape:pageopacity="0"
     inkscape:pageshadow="2"
     inkscape:window-width="1920"
     inkscape:window-height="1027"
     id="namedview4230"
     showgrid="false"
     inkscape:current-layer="g4145"
     inkscape:zoom="3.337544"
     inkscape:cx="63.527695"
     inkscape:cy="92.659221"
     inkscape:window-x="-8"
     inkscape:window-y="-8"
     inkscape:window-maximized="1" />
  <metadata
     id="metadata4138">image/svg+xmlimage/svg+xml<rdf:RDF>
  <cc:Work
     rdf:about="">
    <dc:format>image/svg+xml</dc:format>
    <dc:type
       rdf:resource="http://purl.org/dc/dcmitype/StillImage" />
  </cc:Work>
</rdf:RDF>
</metadata>
  <g
     id="g4140">
    <title
       id="title4208">background</title>
    <rect
       x="-1"
       y="-1"
       width="202"
       height="202"
       id="canvas_background"
       fill="none" />
  </g>
  <g
     id="g4145">
    <title
       id="title4212">Layer 1</title>
    <path
       d="m 50.280697,95.650449 c 12.36483,9.891811 54.800113,13.807581 53.164933,18.032721 -5.369301,27.97645 1.64541,65.79682 9.37047,65.72017"
       id="svg_2"
       inkscape:connector-curvature="0"
       style="fill:none;stroke:#181820;stroke-width:6;stroke-linecap:round"
       sodipodi:nodetypes="ccc" />
    <path
       d="m 18.53518,39.209714 c 3.72133,-8.79645 16.458814,15.969229 18.467764,19.805379 1.89,3.609 6.89748,-0.75012 12.07391,-4.59652"
       id="svg_3"
       inkscape:connector-curvature="0"
       style="fill:none;stroke:#181820;stroke-width:6;stroke-linecap:round"
       sodipodi:nodetypes="csc" />
    <path
       d="M 14.572051,34.32237 C 11.594113,44.848675 38.32136,56.6506 34.27191,80.1394"
       id="svg_4"
       inkscape:connector-curvature="0"
       style="fill:none;stroke:#181820;stroke-width:6;stroke-linecap:round"
       sodipodi:nodetypes="cc" />
    <path
       d="m 60.254544,41.877773 c -3.41061,-4.37456 -12.20901,-5.00486 -11.59465,3.52504 -1.35777,1.57879 -1.71404,0.0012 -2.09496,4.7949 l 5.26826,8.94516 c 8.80699,-2.7616 12.14832,-7.90911 8.42135,-17.2651 z"
       id="svg_9"
       inkscape:connector-curvature="0"
       style="fill:#ff1919;fill-rule:evenodd"
       sodipodi:nodetypes="ccccc" />
    <path
       d="m 48.691964,45.434013 c -1.76455,1.64004 -1.82942,1.27386 -2.1413,4.70346 l 5.30338,9.11919 c 0,0 5.86658,-1.65258 7.65743,-4.36986 -1.19914,0.77855 -1.10715,-3.80843 -5.26282,-2.62626 -6.17529,1.29108 -5.53116,0.02448 -5.55669,-6.82653 z"
       id="svg_16"
       inkscape:connector-curvature="0"
       style="fill:#000000;fill-opacity:0.4;fill-rule:evenodd"
       sodipodi:nodetypes="cccccc" />
    <ellipse
       ry="11.355175"
       rx="10.355176"
       cx="15.774475"
       cy="19.981886"
       id="svg_5"
       style="fill:#ffffff;stroke:#181820;stroke-width:3" />
    <path
       d="m 50.280697,100.29962 c -16.464742,12.95541 -1.41663,40.75495 -2.58577,44.12166 -2.8358,13.03338 -19.68171,53.19404 -11.4491,53.11174"
       id="svg_6"
       inkscape:connector-curvature="0"
       style="fill:none;stroke:#181820;stroke-width:6;stroke-linecap:round"
       sodipodi:nodetypes="ccc" />
    <path
       d="m 56.187599,120.06807 -0.856044,9.5101 -28.017603,6.10275 c -1.222141,-13.0177 -3.466376,-28.71193 -4.688516,-41.729627 l 29.357073,-7.455692 23.052594,12.891315 -0.938287,20.056404"
       id="svg_7"
       inkscape:connector-curvature="0"
       style="fill:#03253d;fill-rule:evenodd"
       sodipodi:nodetypes="ccccccc" />
    <path
       d="m 55.060025,119.76272 0.0564,-7.44368 18.531747,-0.13323 -0.430611,6.61445 z"
       id="svg_8"
       inkscape:connector-curvature="0"
       style="fill:#000000;fill-opacity:0.4;fill-rule:evenodd"
       sodipodi:nodetypes="ccccc" />
    <path
       d="M 13.077063,40.655487 C -0.16769385,35.442087 17.57499,60.68277 22.23442,61.04572 26.805,61.40174 40.73425,47.34132 54.8113,39.49016"
       id="svg_10"
       inkscape:connector-curvature="0"
       style="fill:none;stroke:#181820;stroke-width:6;stroke-linecap:round"
       sodipodi:nodetypes="csc" />
    <path
       d="m 61.28908,28.38499 c 1.68618,0.12749 11.93509,6.19265 9.62116,13.25783 -1.06367,2.04424 -4.91102,4.89117 -7.31391,2.66487 -6.18083,3.9223 -6.86009,3.31294 -9.37112,1.73224 l -5.78704,3.93511 C 46.5925,47.09925 44.37182,43.97345 42.52614,41.09766 l 5.88923,-3.97346 c 0.25464,-2.47031 10.89239,-8.74543 12.87371,-8.73921 z"
       id="svg_11"
       stroke="null"
       inkscape:connector-curvature="0"
       style="fill:#ff1919;fill-rule:evenodd"
       sodipodi:nodetypes="cccccccc" />
    <path
       d="m 47.96283,37.53575 6.10625,8.61979 c -1.4631,0.93023 -2.2387,1.54796 -3.8268,2.60319 -0.96864,-1.51227 -4.99977,-7.39953 -5.96841,-8.9118 1.25049,-0.87456 2.31347,-1.62412 3.56396,-2.49868 z"
       id="svg_12"
       stroke="null"
       inkscape:connector-curvature="0"
       style="fill:#f5faff;fill-rule:evenodd"
       sodipodi:nodetypes="cccccc" />
    <path
       stroke="null"
       d="m 47.23626,48.12553 c 6.61011,-4.51673 6.90758,-5.09584 8.70506,-3.73741 1.29748,0.73341 1.89707,0.52912 6.45488,-2.04993 4.55781,-2.57905 9.84488,-6.18574 8.6033,-0.78695 -0.99158,2.2112 -5.18906,4.87549 -7.34593,2.8059 -5.28191,3.30534 -6.61686,3.7205 -9.35196,1.71449 l -5.83456,3.88703 z"
       id="svg_13"
       inkscape:connector-curvature="0"
       style="fill:#000000;fill-opacity:0.4;fill-rule:evenodd"
       sodipodi:nodetypes="ccsccccc" />
    <path
       fill="#000000"
       fill-opacity="0.4"
       fill-rule="evenodd"
       id="svg_14"
       stroke="null" />
    <path
       d="m 22.735744,94.165435 c 0.802963,-0.07143 20.768599,-5.429026 29.157789,-7.620469 L 48.615163,73.59019 c -9.294713,2.222605 -19.490565,5.209377 -28.785278,7.431987 z"
       id="svg_15"
       stroke="null"
       inkscape:connector-curvature="0"
       style="fill:#10140c;fill-opacity:1;fill-rule:evenodd"
       sodipodi:nodetypes="ccccc" />
    <path
       id="svg_1"
       d="M 64.782037,58.738702"
       fill-opacity="null"
       stroke-width="null"
       inkscape:connector-curvature="0"
       style="opacity:0.5;fill:#ff1919;stroke:#000000" />
  </g>
</svg>
