<svg width="200" height="200" xmlns="http://www.w3.org/2000/svg">

 <metadata id="metadata4138">image/svg+xmlimage/svg+xml</metadata>
 <g id="g4140">
  <title>background</title>
  <rect x="-1" y="-1" width="202" height="202" id="canvas_background" fill="none"/>
 </g>
 <g id="g4145">
  <title>Layer 1</title>
  <path stroke="#181820" stroke-width="6" stroke-linecap="round" fill="none" d="m35,100c12.36483,9.89181 38.06299,28.78362 36.42781,33.00876c2.52349,23.00292 -10.48925,59.65458 -2.76419,59.57793" id="svg_2"/>
  <path stroke="#181820" stroke-width="6" stroke-linecap="round" fill="none" d="m44.45244,48.34817c3.72133,-8.79645 1.77736,18.06658 3.78631,21.90273c1.89,3.609 6.89748,-0.75012 12.07391,-4.59652" id="svg_3"/>
  <path stroke="#181820" stroke-width="6" stroke-linecap="round" fill="none" d="m40.18969,47.95515c-9.26999,3.63501 -1.71852,20.5305 -5.76797,44.0193" id="svg_4"/>
  <path fill="#ff1919" fill-rule="evenodd" d="m71.49035,53.11358c-3.41061,-4.37456 -12.20901,-5.00486 -11.59465,3.52504c-1.35777,1.57879 -1.71404,0.0012 -2.09496,4.7949l5.26826,8.94516c8.80699,-2.7616 12.14832,-7.90911 8.42135,-17.2651z" id="svg_9"/>
  <path fill="#000000" fill-opacity="0.4" fill-rule="evenodd" d="m59.92777,56.66982c-1.76455,1.64004 -1.82942,1.27386 -2.1413,4.70346l5.30338,9.11919c0,0 5.86658,-1.65258 7.65743,-4.36986c-1.19914,0.77855 -1.10715,-3.80843 -5.26282,-2.62626c-6.17529,1.29108 -5.53116,0.02448 -5.55669,-6.82653z" id="svg_16"/>
  <ellipse fill="#ffffff" stroke="#181820" stroke-width="3" ry="11.355175" rx="10.355176" cx="52.47811" cy="41.704446" id="svg_5"/>
  <path stroke="#181820" stroke-width="6" stroke-linecap="round" fill="none" d="m35,100c-0.28518,3.96676 -7.40906,41.35419 -8.5782,44.7209c-2.8358,13.03338 -27.47187,51.99556 -19.23926,51.91326" id="svg_6"/>
  <path fill="#03253d" fill-rule="evenodd" d="m42.47622,134.74293l-28.84755,0.02392c2.04466,-12.91408 2.71431,-25.82816 4.75897,-38.74224l30.28897,0.05832l15.23998,18.80522l-6.33274,14.40309" id="svg_7"/>
  <path fill="#000000" fill-opacity="0.4" fill-rule="evenodd" d="m43.56156,130.09992l0.7864,-3.87855l14.78625,-0.56609l-1.68181,3.72968l-13.89084,0.71496z" id="svg_8"/>
  <path stroke="#181820" stroke-width="6" stroke-linecap="round" fill="none" d="m34.5,45c-12.04627,-13.00356 -16.7752,27.51782 -12.11577,27.88077c4.57058,0.35602 18.49983,-13.7044 32.57688,-21.55556" id="svg_10"/>
  <path fill="#ff1919" fill-rule="evenodd" d="m61.43889,40.22004c1.68618,0.12749 11.93509,6.19265 9.62116,13.25783c-1.06367,2.04424 -4.91102,4.89117 -7.31391,2.66487c-6.18083,3.9223 -6.86009,3.31294 -9.37112,1.73224l-5.78704,3.93511c-1.84567,-2.87579 -4.06635,-6.00159 -5.91203,-8.87738l5.88923,-3.97346c0.25464,-2.47031 10.89239,-8.74543 12.87371,-8.73921z" id="svg_11" stroke="null"/>
  <path fill="#f5faff" fill-rule="evenodd" d="m48.11264,49.3708l6.10625,8.61979c-1.4631,0.93023 -2.2387,1.54796 -3.8268,2.60319c-0.96864,-1.51227 -4.99977,-7.39953 -5.96841,-8.9118c1.25049,-0.87456 2.31347,-1.62412 3.56396,-2.49868l0.125,0.1875z" id="svg_12" stroke="null"/>
  <path stroke="null" fill="#000000" fill-opacity="0.4" fill-rule="evenodd" d="m47.38607,59.96058c6.61011,-4.51673 6.90758,-5.09584 8.70506,-3.73741c1.29748,0.73341 1.89707,0.52912 6.45488,-2.04993c4.55781,-2.57905 9.84488,-6.18574 8.6033,-0.78695c-0.99158,2.2112 -5.18906,4.87549 -7.34593,2.8059c-5.28191,3.30534 -6.61686,3.7205 -9.35196,1.71449l-5.83456,3.88703l-1.23079,-1.83313z" id="svg_13"/>
  <path fill="#000000" fill-opacity="0.4" fill-rule="evenodd" id="svg_14" stroke="null"/>
  <path fill="#efeded" fill-rule="evenodd" d="m18.44139,95.96978c0.79559,0.04715 21.46619,0.1568 30.13678,0.14145l0.03707,-4.84833c-9.55555,-0.05518 -20.17361,0.07714 -29.72916,0.02196l-0.44469,4.68492z" id="svg_15" stroke="null"/>
  <path id="svg_1" d="m49.50134,58.43908" opacity="0.5" fill-opacity="null" stroke-width="null" stroke="#000000" fill="#ff1919"/>
 </g>
</svg>
