<?xml version="1.0" encoding="UTF-8" standalone="no"?>
<!-- Generator: Adobe Illustrator 16.0.0, SVG Export Plug-In . SVG Version: 6.00 Build 0)  -->

<svg
   xmlns:dc="http://purl.org/dc/elements/1.1/"
   xmlns:cc="http://creativecommons.org/ns#"
   xmlns:rdf="http://www.w3.org/1999/02/22-rdf-syntax-ns#"
   xmlns:svg="http://www.w3.org/2000/svg"
   xmlns="http://www.w3.org/2000/svg"
   xmlns:sodipodi="http://sodipodi.sourceforge.net/DTD/sodipodi-0.dtd"
   xmlns:inkscape="http://www.inkscape.org/namespaces/inkscape"
   version="1.1"
   id="Capa_1"
   x="0px"
   y="0px"
   width="90px"
   height="90px"
   viewBox="0 0 90 90"
   style="enable-background:new 0 0 90 90;"
   xml:space="preserve"
   inkscape:version="0.91 r13725"
   sodipodi:docname="facebook-logo.svg"><metadata
     id="metadata5350"><rdf:RDF><cc:Work
         rdf:about=""><dc:format>image/svg+xml</dc:format><dc:type
           rdf:resource="http://purl.org/dc/dcmitype/StillImage" /></cc:Work></rdf:RDF></metadata><defs
     id="defs5348" /><sodipodi:namedview
     pagecolor="#ffffff"
     bordercolor="#666666"
     borderopacity="1"
     objecttolerance="10"
     gridtolerance="10"
     guidetolerance="10"
     inkscape:pageopacity="0"
     inkscape:pageshadow="2"
     inkscape:window-width="640"
     inkscape:window-height="480"
     id="namedview5346"
     showgrid="false"
     inkscape:current-layer="g5313" /><g
     id="g5313"><path
       id="Facebook__x28_alt_x29_"
       d="M 90,15.001 C 90,7.119 82.884,0 75,0 L 15,0 C 7.116,0 0,7.119 0,15.001 L 0,74.999 C 0,82.881 7.116,90 15.001,90 L 52,90 52,52 42,52 42,42 52,42 52,35.156 C 52,25.077 52.568,16 61.875,16 L 74,16 74,31 62,30 c -1.322416,-0.110201 0,3.587 0,6 l 0,6 12,0 -4,10 -8,0 0,38 13,0 c 7.884,0 15,-7.119 15,-15.001 z"
       inkscape:connector-curvature="0"
       sodipodi:nodetypes="sssssscccccssccsscccccsss"
       style="fill:#ffffff;fill-opacity:1;stroke:none" /></g><g
     id="g5316" /><g
     id="g5318" /><g
     id="g5320" /><g
     id="g5322" /><g
     id="g5324" /><g
     id="g5326" /><g
     id="g5328" /><g
     id="g5330" /><g
     id="g5332" /><g
     id="g5334" /><g
     id="g5336" /><g
     id="g5338" /><g
     id="g5340" /><g
     id="g5342" /><g
     id="g5344" /></svg>